<?xml version="1.0" standalone="no"?>
<!DOCTYPE svg PUBLIC "-//W3C//DTD SVG 1.1//EN" "http://www.w3.org/Graphics/SVG/1.1/DTD/svg11.dtd" >
<svg xmlns="http://www.w3.org/2000/svg">
<metadata></metadata>
<defs>
<font id="nafees_nastaleeqregular" horiz-adv-x="963" >
<font-face units-per-em="2048" ascent="1638" descent="-410" />
<missing-glyph horiz-adv-x="203" />
<glyph horiz-adv-x="0" />
<glyph unicode="&#xd;" horiz-adv-x="256" />
<glyph horiz-adv-x="0" />
<glyph unicode=" "  horiz-adv-x="203" />
<glyph unicode="&#x09;" horiz-adv-x="203" />
<glyph unicode="&#xa0;" horiz-adv-x="203" />
<glyph unicode="!" horiz-adv-x="545" d="M113 -256q-2 4 13 29.5t36.5 55.5t42 53.5t28.5 23.5q5 0 31.5 -17.5t57 -39t55 -41t24.5 -25.5q0 -10 -15 -37t-35.5 -54.5t-42 -50t-32.5 -24.5q-40 29 -84.5 59.5t-78.5 67.5zM213 104q0 46 9 87.5t9 87.5v430q0 53 20.5 112.5t41.5 108.5q14 33 43 92q4 10 8 7t4 -7 v-485q0 -111 -21.5 -200t-70.5 -181q-4 -9 -16.5 -30.5t-26.5 -21.5z" />
<glyph unicode="&#x22;" horiz-adv-x="532" d="M166 1518q0 6 3 20t7 28.5t9 26t10 11.5q10 2 22 -20.5t23.5 -57.5t19.5 -79t8 -85q0 -57 -2 -116.5t-30 -84.5q-7 94 -15 152.5t-17 95.5t-19.5 60.5t-18.5 48.5zM324 1526q0 6 3 20.5t7 28.5t9 25.5t9 11.5q10 2 22.5 -20.5t24 -57.5t19.5 -79t8 -85q0 -57 -2 -116.5 t-31 -84.5q-6 95 -14 153t-17.5 95t-19.5 60.5t-18 48.5z" />
<glyph unicode="#" horiz-adv-x="1210" d="M143 59v123h289l33 287l123 -2l-33 -285h135l33 289l123 -2l-33 -287h252l-2 -123h-264l-17 -135h285l-2 -123h-297l-33 -290h-123l33 290h-135l-33 -293h-123l33 293h-242v123h256l17 135h-275zM524 -76h135l17 135h-135z" />
<glyph unicode="$" horiz-adv-x="989" d="M143 807q0 65 26 125.5t71 107.5t103 76t126 29q6 2 5 71.5t1 69.5h55v-31v-43v-43v-28q58 0 109 -24.5t92 -64.5t68.5 -91.5t36.5 -106.5h-125q-25 61 -68 105.5t-108 62.5v-457q45 -6 86 -21.5t75.5 -39t61 -56t47 -69.5t31 -78t10.5 -86q0 -68 -24.5 -128 t-67.5 -108.5t-101.5 -79t-126.5 -38.5v-49v-62v-51v-25q-2 0 -11 -1t-19 -1h-19t-8 4v189q-53 0 -108.5 26.5t-100.5 68.5t-73.5 95.5t-28.5 104.5h61t62 -4q14 -64 68 -112t120 -58q-2 57 -2 104v96v111q0 61 -2 143q-53 19 -86 32t-52.5 22.5t-28.5 14.5t-13 9 q-74 51 -108 127t-34 162zM268 801q0 -37 14.5 -78t41 -74t63.5 -54.5t78 -21.5h2q0 9 1 29.5t1 67.5v133v219q-43 0 -80 -19.5t-63.5 -51t-42 -71.5t-15.5 -79zM526 -14q82 22 139.5 81.5t57.5 147.5q0 41 -16.5 78t-43 65.5t-62.5 48t-75 29.5v-450z" />
<glyph unicode="%" horiz-adv-x="1192" d="M145 756q-2 4 13.5 29.5t37 55t42 53.5t28.5 24q4 0 31 -17.5t57.5 -39t55 -41t24.5 -25.5q0 -11 -15.5 -37.5t-36 -54t-42 -50t-31.5 -24.5q-41 28 -85 59t-79 68zM150 -231l684 1235l215 129q-70 -125 -128.5 -230.5t-110.5 -202t-102.5 -187.5t-102.5 -187.5 t-110.5 -202t-127.5 -229.5q-68 -41 -115 -67t-102 -58zM750 74q-2 4 13 29.5t36.5 55t42 53.5t28.5 24q4 0 31 -17.5t57.5 -39t55 -41t24.5 -25.5q0 -11 -15 -37.5t-35.5 -54t-42 -50t-32.5 -24.5q-41 28 -85 59t-78 68z" />
<glyph unicode="'" horiz-adv-x="406" d="M166 1518q0 6 3 20t7 28.5t9 26t10 11.5q10 2 22 -20.5t23.5 -57.5t19.5 -79t8 -85q0 -57 -2 -116.5t-30 -84.5q-7 94 -15 152.5t-17 95.5t-19.5 60.5t-18.5 48.5z" />
<glyph unicode="(" horiz-adv-x="1186" d="M143 283q13 249 71 388.5t162.5 245t244 171t292.5 77.5q-116 -57 -210.5 -140t-161 -184.5t-103.5 -219.5q-35 -117 -43 -334v-4q8 -217 43 -334q37 -119 103.5 -220.5t161 -184.5t210.5 -140q-153 12 -292.5 77.5t-244 171t-162.5 245t-71 385.5z" />
<glyph unicode=")" horiz-adv-x="1057" d="M143 -592q117 57 211.5 140t161 184.5t102.5 220.5q35 117 44 334v4q-9 217 -44 334q-36 118 -102.5 219.5t-161 184.5t-211.5 140q154 -12 293 -77.5t243.5 -171t163 -244.5t70.5 -389q-12 -246 -70.5 -385.5t-163 -245t-243.5 -171t-293 -77.5z" />
<glyph unicode="*" horiz-adv-x="1280" d="M143 358q41 29 65.5 48.5t39.5 29.5q8 6 12 6h2q158 -22 311 -65q2 2 3.5 5t1.5 5q-136 78 -261 172q-10 6 -10 16l-18 132l131 -17q10 -2 16 -12q47 -62 90 -127.5t82 -134.5q6 2 13 2q-9 37 -20 79t-15 56q-4 16 -8.5 43t-9.5 54.5t-8 49t-3 25.5v16l76 103l8 6l6 -6 l76 -103v-16q0 -4 -3 -25.5t-8 -49t-9.5 -54.5t-8.5 -43q-2 -8 -5 -23.5t-9 -35t-11 -40t-12 -36.5q5 -2 8 -3t5 -1q80 141 174 264q6 8 16 12l133 17l-20 -132q-4 -12 -10 -16q-66 -49 -132.5 -93t-136.5 -81q2 -4 6 -10q78 22 157 39.5t161 27.5h2q4 0 6 -1t6 -5 q10 -8 105 -78l-115 -88h-2q-2 0 -25.5 4.5t-53.5 9.5t-59.5 11t-47.5 10q-7 0 -22 4t-35.5 9.5t-42 11.5t-38.5 12q-4 -10 -8 -12q72 -41 140.5 -84t134.5 -92q6 -7 10 -17l20 -133l-133 19q-12 4 -16 10q-101 129 -178 274l-11 -2q4 -18 10.5 -39.5t12.5 -43t10 -39 t6 -25.5q4 -17 8.5 -43.5t9.5 -54t8 -48t3 -24.5v-17l-76 -104l-8 -6q-6 4 -6 6l-76 104v17q0 4 3 24.5t8 48t9.5 54t8.5 43.5q2 8 5 24.5t9 38t12 44t11 38.5l-11 2q-37 -72 -83 -139.5t-93 -132.5q-4 -8 -16 -10l-131 -19l18 133q0 4 10 17q64 47 130.5 90t136.5 80 q-4 6 -9 14q-16 -6 -35.5 -10t-38 -9.5t-33.5 -9.5t-22 -4q-18 -4 -47.5 -10t-59.5 -11t-53.5 -9.5t-25.5 -4.5h-2z" />
<glyph unicode="+" horiz-adv-x="1182" d="M143 260v137q95 0 189 -1t192 3v377h135q0 -65 1.5 -164.5t-1.5 -216.5h78h113h113h75v-131l-374 2v-393h-109t-31 4v383h-381z" />
<glyph unicode="," horiz-adv-x="514" d="M117 131q-8 70 17.5 156t76.5 178q12 33 40 65.5t51.5 50t31.5 8.5t-17 -61q-12 -24 -37.5 -70t-43 -98.5t-17.5 -103.5q0 -49 37 -80q16 -14 26.5 -4t22.5 43q6 16 20.5 25.5t32 10.5t33 -8.5t23.5 -27.5q2 -113 -41 -171t-97.5 -66.5t-102.5 31.5t-56 122z" />
<glyph unicode="-" d="M143 283v123q133 0 311.5 1t364.5 1v-125h-676z" />
<glyph unicode="." horiz-adv-x="1075" d="M148.5 -84q5.5 8 9.5 18l131 142q10 14 38.5 17t41.5 3h127h151h150h118q17 0 11 -5t-11 -9q-28 -29 -68 -64.5t-79 -64.5q-20 -16 -46 -29.5t-52 -15.5q-17 0 -53.5 -1t-86.5 -1h-102h-106h-95h-67q-17 2 -11.5 10z" />
<glyph unicode="/" horiz-adv-x="1186" d="M143 -477l684 1235l215 129q-69 -125 -127.5 -230.5t-110.5 -202t-102.5 -187.5t-102.5 -187t-110.5 -201.5t-128.5 -230.5q-67 -41 -114 -66.5t-103 -58.5z" />
<glyph unicode="0" horiz-adv-x="1019" d="M100 190v46v104q0 84 1 167.5t1 146.5v69v34q2 84 34.5 157t88 127t129 84.5t157.5 30.5q79 0 151 -31t126.5 -84t87.5 -124t35 -152q0 -73 0.5 -129t1 -102t1 -86.5t1 -82t1 -89t0.5 -107.5q-1 -83 -35 -153.5t-90 -122t-129.5 -81t-152.5 -29.5q-84 0 -158.5 31 t-130 86t-88 129t-32.5 161zM280 767q0 -12 0.5 -46.5t1 -83t1 -107t1 -118t1 -115.5t0.5 -99q0 -30 6 -55l353 782q-14 10 -29.5 18t-31.5 15q-25 13 -69 13q-42 0 -83 -15.5t-73.5 -43t-53.5 -64.5t-24 -80v-1zM363 18q24 -20 54 -33q37 -19 91 -19q35 0 67.5 11t60.5 31 t48.5 48t31.5 62q3 12 5.5 53t4.5 98.5t3 125.5t1 135q0 50 -0.5 96.5t-2 84t-3 63.5t-3.5 35l-1 3z" />
<glyph unicode="1" horiz-adv-x="682" d="M180 856q0 92 1 93l9 6l-1 -1q0 -1 3 1t5 4q9 5 17.5 11.5t11.5 9.5q42 40 68.5 80t35.5 92h182l-2 -1369h-182v1063l-10 10h-138z" />
<glyph unicode="2" horiz-adv-x="1020" d="M100 -24l582 642h1q23 26 36 60t13 69q0 46 -18.5 86t-50 70t-72 47.5t-84.5 17.5q-28 0 -50 -5t-41.5 -15t-37.5 -24.5t-37 -33.5q-17 -19 -28 -40.5t-17 -44t-8 -45.5t-2 -45l-181 -2q0 7 -0.5 8.5t-0.5 8.5q0 89 29.5 165.5t82.5 133t126.5 89.5t161.5 35 q112 0 206.5 -52t151.5 -149h1q29 -45 43 -98.5t14 -108.5q0 -57 -14.5 -108.5t-46.5 -94.5q-2 -4 -8 -12t-23.5 -28.5t-49.5 -57.5t-85.5 -97.5t-132.5 -149t-190 -212.5l7 -17l542 -6v-179l-819 2v191z" />
<glyph unicode="3" horiz-adv-x="1009" d="M100 159v37v10q0 10 1 11l181 -1q0 -4 -0.5 -3t-0.5 -3q0 -47 16.5 -91t46 -77.5t70.5 -53.5t91 -20q38 0 73.5 16.5t64.5 43.5t49 61t28 69q7 15 7 62q0 45 -16.5 79t-45 58.5t-68.5 39t-86 20.5h-3q-7 1 -13 1.5t-12 0.5h-11v89q43 9 88.5 29.5t83 52t61.5 73t24 92.5 q0 37 -12 73t-34 64.5t-54.5 46t-72.5 17.5q-66 0 -113 -38t-67 -98q-9 -27 -12 -52.5t-4 -48.5h-175v62q0 17 2 34t6 36q14 66 49 120t85 91.5t111.5 58t128.5 20.5q73 0 134.5 -24.5t106.5 -69t70.5 -106t25.5 -135.5q0 -96 -39 -167t-111 -134l-3 -8v-1q38 -26 67.5 -53 t49.5 -59.5t30.5 -71t10.5 -86.5q0 -84 -31.5 -163.5t-87 -142t-130 -100t-160.5 -37.5q-77 0 -148 29.5t-126 80.5t-89 119.5t-37 146.5z" />
<glyph unicode="4" horiz-adv-x="1004" d="M100 126v167l346 858h293v-862l11 -10h164v-154h-164l-11 -10v-332h-188l-1 333l-10 10h-440zM299 293l9 -13h232l10 10l-2 642l-20 3z" />
<glyph unicode="5" horiz-adv-x="1014" d="M100 129h190q25 -72 79.5 -116.5t135.5 -44.5q42 0 81.5 16.5t69.5 45.5t48.5 68t18.5 83q0 59 -1.5 94.5t-3.5 56t-4.5 30t-4.5 17.5h-1q-11 31 -32.5 56.5t-48.5 43.5t-58.5 27.5t-63.5 9.5q-70 0 -130 -30.5t-98 -87.5h-173l1 745h732v-182l-540 1l-10 -10v-296l14 -9 q51 23 99.5 39t103.5 16q64 0 125 -20t112 -56t89.5 -86.5t58.5 -111.5q14 -42 19.5 -80.5t5.5 -80.5q0 -27 -2 -54t-4 -58q-5 -79 -40 -147t-90 -118t-126 -78.5t-147 -28.5q-63 0 -123 17t-111 49.5t-90.5 80t-61.5 107.5q-8 23 -13.5 46.5t-5.5 45.5z" />
<glyph unicode="6" horiz-adv-x="1024" d="M100 604q0 63 3 119.5t15 116.5q15 69 52.5 126.5t90.5 99t118 64.5t135 23q90 0 165.5 -32.5t130 -89t84.5 -132.5t30 -164q0 -7 -0.5 -8t-0.5 -8l-185 1q-1 23 -2.5 44t-6.5 41v1q-10 36 -31 66.5t-49.5 52.5t-63.5 34t-73 12q-41 0 -80.5 -17.5t-70.5 -47t-49.5 -67.5 t-18.5 -80q0 -32 -0.5 -63t-0.5 -61v-123l17 -7q45 48 101 66t119 18q85 0 156.5 -31.5t123.5 -86t81 -128t29 -156.5q0 -86 -31 -160t-86 -129t-129 -86.5t-160 -31.5q-62 0 -122.5 18.5t-111.5 52.5t-90 82.5t-59 109.5h-1q-11 31 -16.5 62t-7.5 66v34q0 34 -1 80.5 t-1 100.5q0 34 -0.5 68t-1 63.5t-1 52t-0.5 34.5zM292 189q0 -47 17 -87.5t46.5 -70.5t69.5 -47.5t87 -17.5q46 0 86.5 17t70.5 47t47.5 70t17.5 86t-17.5 86t-47.5 69.5t-71 46t-87 16.5q-44 0 -83.5 -14t-69.5 -40.5t-48 -65.5t-18 -89v-6z" />
<glyph unicode="7" horiz-adv-x="949" d="M100 875l1 263h782l-64 -198l-491 -1140h-210l520 1138l-9 14h-325l-9 -7l-19 -70h-176z" />
<glyph unicode="8" horiz-adv-x="1021" d="M100 192q0 39 6.5 76.5t24.5 71.5t49.5 64t81.5 55l1 18q-89 62 -126 130t-37 148q0 82 32.5 154.5t88 127t129 86t155.5 31.5q81 0 155 -31t130.5 -84t90 -125.5t33.5 -154.5q0 -88 -44.5 -161.5t-116.5 -122.5l2 -18q78 -37 122 -99t44 -153q0 -87 -30 -164t-84 -134 t-129 -90.5t-164 -33.5q-83 0 -157.5 32.5t-131 88t-90 130t-35.5 158.5zM289 187q2 -48 19 -88t46 -69t69 -45.5t87 -16.5q49 0 90 18.5t70 50.5t45 74t16 89q0 48 -17.5 84t-47.5 59t-70 34.5t-85 11.5h-11q-42 0 -80.5 -13t-67.5 -38t-46 -60t-17 -78v-13zM290 766 q0 -36 21.5 -81t54.5 -85.5t73 -68t77 -27.5h1q20 0 43.5 13t46.5 33.5t44.5 47t38 53.5t26.5 52t10 43v1q0 44 -16.5 84.5t-45.5 71.5t-68.5 49.5t-85.5 18.5q-41 0 -80.5 -15.5t-70.5 -43.5t-50 -65.5t-19 -80.5z" />
<glyph unicode="9" horiz-adv-x="1021" d="M100 204v12l184 -1q1 -20 2.5 -40t7.5 -44v-1q10 -36 31.5 -66t50 -52t63.5 -34t72 -12q41 0 80.5 17.5t70 46.5t49.5 67.5t19 80.5q1 16 1 31.5v30.5v61v61v30.5t1 31.5l-17 7q-45 -45 -100 -64.5t-115 -19.5h-5q-84 0 -155 31t-123.5 84.5t-82 125.5t-29.5 155v6 q0 85 31.5 159t86 129t128.5 87t159 32q64 0 124 -18.5t111 -53t90 -83.5t61 -109q11 -30 15.5 -61.5t7.5 -65.5v-216q0 -24 0.5 -46.5t0.5 -44.5q0 -26 0.5 -49.5t0.5 -41.5v-68q-1 -52 -3 -100.5t-13 -102.5q-15 -69 -52.5 -126.5t-90.5 -99t-118 -64.5t-135 -23 q-90 0 -165 33t-129.5 90t-84.5 134t-30 164zM290 751q0 -47 17 -87.5t47 -69.5t70 -45.5t87 -16.5q45 0 85 14t70 41t47.5 66t17.5 89v6q0 46 -17 86.5t-46.5 71t-70 48.5t-87.5 18q-45 0 -85 -17.5t-70 -48t-47.5 -70.5t-17.5 -85z" />
<glyph unicode=":" horiz-adv-x="592" d="M145 463q-2 4 13.5 29.5t37 55.5t42 53.5t28.5 23.5q4 0 31 -17.5t57.5 -39t55 -41t24.5 -25.5q0 -10 -15.5 -37t-36 -54.5t-42 -50t-31.5 -24.5q-41 29 -85 59.5t-79 67.5zM160 -80q-2 4 13 29.5t36.5 55.5t42 53.5t29.5 23.5q4 0 30.5 -17.5t57 -39t55.5 -41t25 -25.5 q0 -10 -15.5 -36.5t-36 -54.5t-42 -50.5t-31.5 -24.5q-41 29 -85 59.5t-79 67.5z" />
<glyph unicode=";" horiz-adv-x="586" d="M137 254q-8 70 17.5 156t76.5 178q13 33 40.5 65.5t51 50t31.5 8t-16 -60.5q-10 -20 -26.5 -51t-33 -66.5t-27.5 -75.5t-11 -79q0 -49 36 -80q17 -14 27 -4t23 43q6 16 20 25.5t31.5 10.5t33 -8.5t23.5 -27.5q2 -113 -41 -171t-97 -66.5t-102.5 31.5t-56.5 122zM154 -291 q-2 4 13 29.5t36.5 55.5t42 53.5t28.5 23.5q5 0 31.5 -17.5t57 -39t55 -41t24.5 -25.5q0 -10 -15 -36.5t-35.5 -54.5t-42 -50.5t-32.5 -24.5q-41 29 -85 59.5t-78 67.5z" />
<glyph unicode="&#x3c;" horiz-adv-x="1032" d="M143 430l742 461v-123l-547 -340l551 -336l-2 -123z" />
<glyph unicode="=" horiz-adv-x="969" d="M143 428v123h680l-2 -123h-678zM145 170v123q134 0 314 1t366 1l-2 -125h-678z" />
<glyph unicode="&#x3e;" horiz-adv-x="1032" d="M143 92l551 336l-547 340v123l742 -461l-744 -461z" />
<glyph unicode="?" horiz-adv-x="870" d="M143 635q0 65 21.5 125.5t61.5 106.5t96.5 74t123.5 28q46 0 96 -14.5t91 -43t67.5 -70.5t26.5 -96q0 -55 -37 -102t-98 -47q-51 0 -84 31.5t-33 81.5q0 55 37 88.5t90 33.5q10 0 19.5 -1t19.5 -7q2 -4 2 0q0 6 -2 8q-23 17 -48.5 31.5t-53.5 14.5q-50 0 -95 -20.5 t-76.5 -54.5t-50 -79t-16.5 -94q2 -47 21.5 -87t47 -77t56.5 -71t49 -68q29 -45 41 -94.5t12 -102.5q0 -45 -11 -96t-42 -84q0 18 1 36.5t1 39.5q4 57 -12 112.5t-57 95.5q-48 50 -94 89.5t-85 84t-62.5 98.5t-23.5 130zM362 -195q0 39 30 66t67 27q47 0 77.5 -29t30.5 -76 q0 -35 -27.5 -66.5t-66.5 -31.5q-47 0 -79 31.5t-32 78.5z" />
<glyph unicode="@" horiz-adv-x="1444" d="M152 244q6 123 53 230.5t124 187t179 124.5t223 45q131 0 242.5 -60t187.5 -157.5t107.5 -221.5t1.5 -251q-13 -53 -43.5 -118.5t-74.5 -124t-98.5 -98.5t-113.5 -40q-39 0 -67.5 16.5t-49 43t-34 60.5t-19.5 69q-16 -12 -31.5 -36t-25.5 -38q-25 -27 -58.5 -45 t-68.5 -18q-62 0 -99.5 31.5t-59 78.5t-30 101.5t-8.5 101.5q0 55 9.5 130t36 142.5t74.5 114.5t124 47q35 0 69.5 -16.5t57.5 -44.5q2 24 14 45.5t29.5 39t38 32t37.5 28.5q16 12 16 0v-29q0 -18 1 -40.5t1 -43.5v-26q0 -115 -9 -226.5t-9 -228.5q0 -22 6 -51t18 -54.5 t31.5 -44t48.5 -18.5q70 0 119 40t79.5 99.5t45 128t14.5 123.5q0 105 -41 197t-111.5 162.5t-164 111.5t-197.5 41q-152 0 -261.5 -64.5t-175 -167.5t-86 -235.5t6.5 -267.5q18 -92 67.5 -171t119 -136t155.5 -90t180 -33q80 0 145.5 18.5t121 51t104.5 78t98 98.5 q4 4 9.5 5t0.5 -15q0 -19 -13 -40.5t-30.5 -42t-35 -38t-29.5 -25.5q-98 -80 -210 -111.5t-221.5 -19.5t-207.5 64.5t-171 139.5t-112 203.5t-30 258.5zM471 195q2 -39 14.5 -77t35 -69t56 -50t76.5 -19q47 0 69.5 25.5t31 63t7.5 78.5t-1 72v62q0 38 -8.5 76t-26.5 66 t-57 28q-50 0 -87.5 -24t-62 -61.5t-36 -82.5t-11.5 -88z" />
<glyph unicode="A" horiz-adv-x="5888" d="M143 -115q4 142 31 269t72 256q0 2 7 20.5t17.5 43t20.5 50t16 39.5q17 43 27 39t-2 -39q-35 -117 -63.5 -223.5t-28.5 -228.5q0 -103 26.5 -197t81.5 -166t138 -115t198 -43q96 0 180 32t155 85t129 124t105 149q41 71 64.5 136.5t23.5 149.5q0 47 -7 92t-44 82 q-16 11 -22 11q-23 0 -42.5 -13.5t-47.5 -13.5q-72 0 -121 49t-49 119v22q22 64 43.5 127.5t44.5 128.5q12 35 37.5 60.5t64.5 25.5q53 0 95 -42t65 -91q8 -16 14 -29.5t12 -27.5q15 16 28 30.5t26 30.5v2h2l8 13q16 22 30.5 44.5t28.5 45.5q23 43 48.5 83t66.5 58 q10 4 21.5 8t25.5 6v3q2 -3 17 -3h8v-2q4 -2 8 -3t8 -3q23 -10 41 -20t41 -10q39 0 63.5 29.5t38 76.5t17.5 105t5 116v55.5v51.5v31q0 29 1 49q2 77 4 153t6 146q25 69 45.5 125.5t40.5 109.5q17 53 25 56.5t6 -54.5q-2 -16 -2 -35v-34v-66v-131q0 -68 1 -147.5t1 -184.5 q0 -88 18 -164q0 -8 2 -10l19 -31q31 -40 78 -72q39 -26 83 -27q8 0 17 1q45 0 91 15.5t87 31.5q12 6 10 21q-8 18 -16 36.5t-18 36.5l-37 74q-19 41 -60 59.5t-84 18.5q-16 0 -30.5 -3t-30.5 -3q-6 -4 -6 4q0 6 6 12q2 0 9 8.5t18.5 18.5t21.5 21.5t19 17.5 q55 47 132.5 75.5t149.5 28.5q78 0 123 -41t45 -121q0 -86 -33 -149q-8 -17 -16 -33t-16 -33q2 2 16 2q57 2 107.5 32t91.5 71q18 18 34 41q9 14 9 37q0 32 2 36q4 72 5 139.5t13 137.5q25 61 52.5 126.5t54.5 123.5q4 16 13 20t9 -18q0 -56 -7 -120q-2 -21 -2 -42 q0 -41 9 -80q15 -76 75 -128q56 -48 130 -48h12q47 4 99.5 19.5t87.5 46.5q26 16 44.5 41.5t38 50t43 42t58.5 17.5q29 -2 47 -10t41 -8q4 2 8 3t8 3q17 10 19 16q20 25 32.5 57.5t28.5 39.5q8 0 10 -8.5t3.5 -17.5t3.5 -16.5t12 -7.5q26 2 40.5 12.5t25 26t18.5 32.5t20 34 q6 -17 23.5 -20t37 -1t37 8.5t27.5 12.5q47 24 61.5 67t14.5 93q-2 77 -3 155v31q0 62 3 125q4 22 12 47q2 8 14.5 39t29 68.5t32.5 77.5t27 65q4 10 12 18t10 -14q-1 -42 -1 -84q0 -65 2 -129q1 -25 1 -49q0 -82 -8 -162q-10 -92 -26.5 -157.5t-45 -120t-72.5 -100.5 t-108 -97q-8 -8 -16 -10q-60 -48 -92 -68q-19 -12 -37.5 -24.5t-36.5 -26.5l-78 -55q-10 -9 -18.5 -15t-14.5 -10q-28 -23 -43 -23q-4 0 -9 1t-13 3q-21 11 -60 19q-12 2 -24 2q-27 0 -55 -12q-23 -11 -41.5 -30t-28.5 -40q-25 -41 -58.5 -88t-74.5 -87t-89 -66.5 t-100 -26.5q-73 0 -118 39q-15 12 -28 27.5t-24 33.5q-2 -4 -4 -7t-4 -7q-8 -17 -14 -28t-12 -21q-23 -37 -51.5 -73t-65.5 -65.5t-80 -47t-92 -17.5q-39 0 -80 20q-10 -14 -19.5 -26.5t-19.5 -26.5q-31 -43 -67.5 -81t-81 -66.5t-94.5 -46t-105 -17.5q-66 2 -113 26.5 t-88 88.5q-16 24 -24 57l-15 -10q-12 -25 -35.5 -58.5t-51 -63.5t-58.5 -50.5t-62 -20.5q-16 0 -27.5 6.5t-25.5 14.5v2l-6 2q-18 8 -51 10q-37 0 -62.5 -20.5t-42.5 -52.5q-8 -17 -14 -34.5t-14 -33.5l-62 -178q-6 -23 -8 -65t-2 -83v-47q-4 -131 -37 -280.5t-96.5 -292 t-158.5 -263t-220 -192.5q-61 -37 -120.5 -57.5t-131.5 -20.5q-127 0 -220 50.5t-155.5 133.5t-93.5 190.5t-31 223.5zM266 1063q-6 6 -6 12t6 12q51 52 100.5 104t102.5 105q8 9 8 4q0 -4 8 -12q33 -45 71 -86t83 -76q43 45 86 89.5t86 87.5q10 10 12 11t15 -11 q41 -41 77.5 -79t77.5 -79q13 -8 2 -19q-45 -47 -89 -94t-87 -94q-10 -10 -13 -11t-13 9l-39 39q-35 35 -67 64.5t-54 45.5q-43 -45 -86 -89t-88 -89q-13 -12 -21 -2q-41 33 -90 78t-82 80zM1606 -143q51 51 100 103t102 106q9 8 9 4t8 -13q33 -45 70.5 -86t82.5 -75 q43 45 86 89t86 87q11 10 13 11t14 -11q41 -41 78 -79t78 -79q12 -8 2 -18q-45 -48 -89 -95t-87 -94q-11 -10 -14 -11t-13 9l-39 39q-35 35 -66.5 64.5t-54.5 46.5q-43 -45 -86 -89.5t-88 -89.5q-12 -12 -20 -2q-41 33 -90.5 78t-81.5 80q-6 6 -6 12.5t6 12.5zM2644 2341 q-6 6 -6 12t6 12q51 52 100 104t103 105q8 9 8 4q0 -4 8 -12q33 -45 71 -86t83 -76q43 45 86 89t86 87q10 11 12 12t14 -12q41 -40 78 -78t78 -79q12 -8 2 -19q-45 -47 -89 -94t-87 -94q-10 -10 -13 -11t-14 9l-39 39q-34 35 -66 64.5t-54 45.5q-43 -45 -86 -89t-89 -89 q-12 -12 -20 -2q-41 33 -90 78t-82 80zM2685 -100q0 155 45 302.5t98 291.5q2 4 13.5 30.5t17.5 40.5q4 8 10 10.5t6 -10.5q0 -12 -6 -41.5t-10 -40.5q-29 -98 -52.5 -187t-23.5 -194q0 -100 24.5 -193t75 -165t129 -115t189.5 -43q117 0 219.5 40t185 108.5t147 162 t105.5 197.5q35 88 36 178t1 189q0 59 -1 133t-5 135q0 4 -2 14.5t-3 22.5t-3 21.5t-2 13.5q0 43 13.5 83t37.5 40q6 0 16.5 -13.5t14.5 -17.5q14 -12 35.5 -15.5t45 -1t45 8.5t38.5 14q14 4 33.5 24.5t46.5 47.5q8 0 8 -10q0 -7 -3 -13t-3 -12q0 -10 14 -14t22 -4 q62 0 97 43q2 8 12 20q2 4 4 7t4 7q4 11 10 0q5 -6 9 -13t14 -11q6 -4 18 0q50 4 76.5 18.5t48.5 42.5q9 15 9 37q0 33 2 37q4 72 5 139.5t13 136.5q25 62 52.5 127.5t53.5 122.5q5 17 14 21t9 -19q0 -56 -7 -120q-2 -21 -2 -42q0 -41 9 -79q6 -35 24.5 -67t45 -56.5 t60.5 -40t69 -15.5q0 7 -1 22t-1 32v51q2 53 24.5 115.5t59 116t88 88t110.5 34.5q37 0 64.5 -19.5t44 -50t25 -66.5t8.5 -67q0 -43 -11.5 -80.5t-29 -71.5t-38 -67.5t-38.5 -68.5l-19 -25h15q50 -1 99 11q56 14 102.5 44.5t78 80.5t39.5 122q4 88 10.5 174t10.5 174 q0 6 7 26.5t9 25.5q29 59 60.5 127.5t56.5 128.5q4 4 8 7t8 -7q0 -148 -9 -295.5t-42 -294.5q-16 -64 -46 -127.5t-67 -116.5q-65 -100 -156 -159.5t-220 -61.5h-35q-8 0 -18.5 1t-20.5 3q-49 -47 -115.5 -77t-133.5 -32h-9q-62 0 -115 26q-57 28 -90 95 q-43 -80 -111.5 -131t-149.5 -85t-167 -57.5t-166 -49.5l-6 -4q-12 -205 -48 -395.5t-100 -383.5q-36 -112 -96.5 -214.5t-138.5 -190.5q-94 -111 -212 -173.5t-265 -62.5q-121 0 -209 56.5t-145.5 145.5t-83.5 199q-24 102 -23 199v15zM3721 2929q0 4 10 14q43 47 87.5 94 t87.5 94q3 4 6.5 4.5t7.5 -4.5q41 -41 82 -80.5t82 -80.5q8 -9 9 -11t-7 -12q-43 -47 -87 -94t-87 -94q-11 -11 -13 -12t-12 10q-41 39 -79 77.5t-77 77.5q-10 10 -10 17zM4225 -174q51 51 100.5 103.5t102.5 105.5q8 8 8 4t8 -12q33 -45 71 -86t83 -76q43 45 86 89t86 87 q10 10 12 11t14 -11q41 -41 78 -79t78 -79q12 -8 2 -18q-45 -47 -89 -94t-87 -95q-10 -10 -13 -11t-14 9l-39 39q-34 35 -66 64.5t-54 46.5q-43 -45 -86 -89t-88 -89q-7 -7 -13 -7q-5 0 -8 5q-41 32 -90 77.5t-82 79.5q-6 6 -6 12.5t6 12.5zM4858 2116q0 4 10 14 q43 47 87 94t87 94q6 9 15 0q40 -41 81 -80.5t82 -80.5q9 -9 10 -11t-8 -12q-43 -47 -87 -94t-87 -94q-10 -11 -12 -12t-12 10q-41 38 -79 77t-77 78q-10 10 -10 17zM4960 1372q0 -6 3 -27.5t9.5 -46t18.5 -47t31 -30.5q26 10 61 24.5t66.5 36t57.5 51t36 70.5q0 53 -38 90 t-89 37q-68 0 -112 -46t-44 -112zM5411 2490q0 4 10 15q43 47 87 94t87 94q3 4 6.5 4t7.5 -4q41 -41 82 -81t82 -81q10 -9 10 -10q0 -3 -8 -12q-43 -47 -87 -94.5t-87 -94.5q-11 -11 -12 -11q-2 0 -12 9q-41 39 -79 78t-77 78q-10 10 -10 16z" />
<glyph unicode="B" horiz-adv-x="4383" d="M143 -115q4 142 31 269t72 256q0 2 7 20.5t17.5 43t20.5 50t16 39.5q17 43 27 39t-2 -39q-35 -117 -63.5 -223.5t-28.5 -228.5q0 -103 26.5 -197t81.5 -166t138 -115t198 -43q96 0 180 32t155 85t129 124t105 149q41 71 64.5 136.5t23.5 149.5q0 47 -7 92t-44 82 q-16 11 -22 11q-23 0 -42.5 -13.5t-47.5 -13.5q-72 0 -121 49t-49 119v22q22 64 43.5 127.5t44.5 128.5q12 35 37.5 60.5t64.5 25.5q53 0 95 -42t65 -91q8 -16 14 -29.5t12 -27.5q15 16 28 30.5t26 30.5v2h2l8 13q16 22 30.5 44.5t28.5 45.5q23 43 48.5 83t66.5 58 q10 4 21.5 8t25.5 6v3q4 -3 17 -3h8v-2q4 -2 8 -3t8 -3q23 -10 41 -20t41 -10q39 0 63.5 29.5t38 76.5t17.5 105t5 116v55.5v51.5v31q0 29 1 49q2 77 4 153t6 146q25 69 45.5 125.5t40.5 109.5q17 53 25 56.5t6 -54.5q-2 -35 -2 -69v-66v-131q0 -68 1 -147.5t1 -184.5 q0 -88 18 -164q0 -8 2 -10l19 -31q31 -40 78 -72q39 -26 83 -27q8 0 17 1q45 0 91 15.5t87 31.5q12 6 10 21l-16 37l-18 36l-37 74q-19 41 -60 59.5t-84 18.5q-16 0 -30.5 -3t-30.5 -3q-6 -4 -6 4q0 6 6 12q2 0 9 8.5t18.5 18.5t21.5 21.5t19 17.5q55 47 132.5 75.5 t149.5 28.5q78 0 123 -41t45 -121q0 -84 -33 -149l-32 -66q4 2 16 2q57 2 107.5 32t91.5 71q10 10 19 20.5t19 20.5h-4q9 14 9 37q0 30 2 36q4 72 5 139.5t13 137.5q25 61 52.5 126.5t54.5 123.5q4 16 13 20t9 -18q0 -56 -7 -120q-2 -21 -2 -42q0 -41 9 -80q15 -76 75 -128 q56 -48 130 -48h12q47 4 99.5 19.5t87.5 46.5q26 16 44.5 41.5t38 50t43 42t58.5 17.5q29 -2 47 -10t41 -8q4 2 8 3t8 3q15 8 19 16q20 25 32.5 57.5t28.5 39.5q8 0 10 -8.5t3.5 -17.5t3.5 -16.5t12 -7.5q24 -2 38.5 10.5t26 30t19.5 36t20 28.5q6 -17 22.5 -21t36 -1 t38 9.5t28.5 12.5q47 24 61.5 67t14.5 93q-2 77 -3 155v31q0 62 3 125q4 22 12 47q2 8 14.5 39t29 68.5t32.5 77.5t27 65q4 10 12 18t10 -14q-1 -42 -1 -84q0 -65 2 -129q1 -25 1 -49q0 -82 -8 -162q-10 -92 -26.5 -157.5t-45 -120t-72.5 -100.5t-108 -97q-2 -2 -4 -3t-4 -3 l-6 -4h-2q-60 -48 -92 -68l-37 -25q-10 -6 -18.5 -12t-18.5 -14l-78 -55q-10 -9 -18.5 -15t-14.5 -10q-28 -23 -43 -23q-4 0 -9 1t-13 3q-21 11 -60 19q-12 2 -24 2q-27 0 -55 -12q-23 -11 -41.5 -30t-28.5 -40q-25 -41 -58.5 -88t-74.5 -87t-89 -66.5t-100 -26.5 q-73 0 -118 39q-15 12 -28 27.5t-24 33.5q-2 -4 -4 -7t-4 -7q-8 -17 -14 -28t-12 -21q-23 -37 -51.5 -73t-65.5 -65.5t-80 -47t-92 -17.5q-37 0 -80 20q-10 -14 -19.5 -26.5t-19.5 -26.5q-31 -43 -67.5 -81t-81 -66.5t-94.5 -46t-105 -17.5q-66 2 -113 26.5t-88 88.5 q-14 24 -24 57l-15 -10q-12 -25 -35.5 -58.5t-51 -63.5t-58.5 -50.5t-62 -20.5q-16 0 -27.5 6.5t-25.5 14.5v2l-6 2q-14 6 -51 10q-37 0 -62.5 -20.5t-42.5 -52.5q-8 -17 -14 -34.5t-14 -33.5l-62 -178q-6 -23 -8 -65t-2 -83v-47q-4 -131 -37 -280.5t-96.5 -292t-158.5 -263 t-220 -192.5q-61 -37 -120.5 -57.5t-131.5 -20.5q-127 0 -220 50.5t-155.5 133.5t-93.5 190.5t-31 223.5zM266 1063q-6 6 -6 12t6 12q51 52 100.5 104t102.5 105q8 9 8 4q0 -4 8 -12q64 -90 154 -162q43 45 86 89.5t86 87.5q10 10 12 11t15 -11q41 -41 77.5 -79t77.5 -79 q13 -8 2 -19q-45 -47 -89 -94t-87 -94q-10 -10 -13 -11t-13 9l-39 39q-35 35 -67 64.5t-54 45.5q-43 -45 -86 -89t-88 -89q-13 -12 -21 -2q-41 33 -90 78t-82 80zM1606 -143q51 51 100 103t102 106q9 8 9 4t8 -13q63 -90 153 -161q43 45 86 89t86 87q11 10 13 11t14 -11 q41 -41 78 -79t78 -79q12 -8 2 -18q-45 -48 -89 -95t-87 -94q-11 -10 -14 -11t-13 9l-39 39q-35 35 -66.5 64.5t-54.5 46.5q-43 -45 -86 -89.5t-88 -89.5q-7 -7 -12 -7q-4 0 -8 5q-41 33 -90.5 78t-81.5 80q-6 6 -6 12.5t6 12.5zM2644 2341q-6 6 -6 12t6 12q51 52 100 104 t103 105q8 9 8 4q0 -4 8 -12q64 -90 154 -162q43 45 86 89t86 87q10 11 12 12t14 -12q41 -40 78 -78t78 -79q12 -8 2 -19q-45 -47 -89 -94t-87 -94q-10 -10 -13 -11t-14 9l-39 39q-34 35 -66 64.5t-54 45.5q-43 -45 -86 -89t-89 -89q-7 -7 -12 -7q-4 0 -8 5q-41 33 -90 78 t-82 80zM3721 2929q0 4 10 14q43 47 87.5 94t87.5 94q3 4 6.5 4.5t7.5 -4.5q41 -41 82 -80.5t82 -80.5q9 -10 9 -12q0 -3 -7 -11q-43 -47 -87 -94t-87 -94q-12 -12 -13 -12q-2 0 -12 10q-41 39 -79 77.5t-77 77.5q-10 10 -10 17z" />
<glyph unicode="[" horiz-adv-x="872" d="M134 -161.5q1 155.5 1 323.5q0 170 1 346t1 344v328q0 157 -2 288q0 70 12.5 109t40 57.5t72.5 21.5t115 3h358v-154h-368l-3 -1986h369v-154h-356q-70 0 -115 3t-72.5 20.5t-40 55.5t-12.5 107q-2 132 -1 287.5z" />
<glyph unicode="\" horiz-adv-x="1186" d="M143 887l215 -129l684 -1235q-55 33 -102 58.5t-115 66.5q-69 125 -127.5 230.5t-110.5 201.5t-102.5 187t-102.5 187.5t-110.5 202t-128.5 230.5z" />
<glyph unicode="]" horiz-adv-x="885" d="M143 1522v153h359q69 0 114.5 -3t73 -21.5t39.5 -57.5t12 -108q-2 -133 -2 -291v-326q0 -168 1 -344t1 -346v-323v-287q0 -70 -12 -108t-39.5 -55t-73 -20t-114.5 -3h-357v153h369l-2 1987h-369z" />
<glyph unicode="^" horiz-adv-x="1004" d="M143 551l359 577l358 -577h-123l-237 383l-234 -383h-123z" />
<glyph unicode="_" horiz-adv-x="1491" d="M143 -2h277h328h325h275v-125l-1205 2v123z" />
<glyph unicode="`" horiz-adv-x="449" d="M85 1548.5q-1 12.5 1 14.5q8 6 30.5 -7.5t49.5 -38t56.5 -58.5t49.5 -68q29 -50 56.5 -103t15.5 -88q-53 78 -89 125t-62.5 73.5t-47 42t-41.5 34.5q-2 4 -7 18t-8 28.5t-4 27z" />
<glyph unicode="{" horiz-adv-x="979" d="M160 553q22 6 58 28.5t70 56.5t54 76t12 85q0 20 -2 79.5t-4 125t-4 123t-2 75.5q0 105 23.5 189t73.5 143t128 92t187 33q2 0 17 -1t30.5 -4t25 -7.5t0.5 -8.5l-55 -18q-108 -43 -150 -129t-47 -197q-2 -51 -1 -117.5t-2 -138t-12 -143.5t-30.5 -133.5t-57.5 -108.5 t-93 -69q-23 -11 -53.5 -18t-57.5 -11q27 -4 57.5 -11t53.5 -18q59 -22 96 -69t57.5 -109.5t28.5 -133.5t11 -142.5t2 -138t1 -117.5q5 -111 47 -197t150 -129l55 -18q9 -4 -0.5 -8.5t-25 -7.5t-30.5 -4t-17 -1q-109 0 -187 33t-128 92t-73.5 143t-23.5 189q0 18 2 75.5 t4 123t4 124t2 80.5q2 41 -13 79t-43 71t-63.5 56.5t-74.5 35.5z" />
<glyph unicode="|" horiz-adv-x="492" d="M182 -567v1982h125l-2 -1982h-123z" />
<glyph unicode="}" horiz-adv-x="885" d="M157.5 -543q-10.5 4 0.5 8l55 19q109 43 151 129t46 197q2 77 1 184.5t13 213t54 191.5t128 121q23 10 53.5 17.5t57.5 11.5q-27 4 -57.5 11t-53.5 18q-57 22 -94 69t-57.5 108.5t-29.5 133.5t-12 143.5t-2 138t-1 117.5q-4 111 -46 197t-151 129l-55 18q-11 4 -0.5 8.5 t26 7.5t30.5 4t17 1q109 0 187 -33t128 -92.5t73.5 -143.5t23.5 -188q0 -18 -2 -75.5t-4 -123t-4 -125t-2 -79.5q-8 -43 13.5 -85t53 -76t68.5 -56.5t59 -28.5q-39 -12 -74.5 -36t-63.5 -56.5t-43 -70.5t-13 -79q0 -22 2 -80.5t4 -124t4 -123t2 -75.5q0 -105 -23.5 -189 t-73.5 -143t-128 -92t-187 -33q-2 0 -17 1t-30.5 4t-26 7z" />
<glyph unicode="~" horiz-adv-x="928" d="M164 150q8 26 25.5 54.5t40 53.5t51 41t61.5 16q20 0 37.5 -7l35 -14t36 -14.5t43.5 -7.5q81 0 147 32t125 85q-18 -47 -50 -86t-74 -67.5t-90 -45t-99 -16.5q-27 0 -49.5 8t-43 19.5t-39 19.5t-38.5 8q-25 0 -41.5 -8t-29.5 -19.5t-24.5 -25.5t-23.5 -26z" />
<glyph unicode="&#xa1;" horiz-adv-x="0" d="M-123 293q0 8 4 30.5t10.5 46t13.5 41t15 17.5v-29q0 -16 5 -34.5t15.5 -34t20.5 -18.5t16.5 18.5t18.5 47t30.5 48.5t45.5 25q18 0 35.5 -8.5t33.5 -8.5q11 0 17 6t14 6t10 -3t-2 -17q-24 -53 -49 -99t-52.5 -78t-61 -46.5t-80.5 -3.5q-5 -49 -10 -84t-17 -80 q-4 -12 -10 -24.5t-19 -14.5q0 37 4 73.5t4 73.5q0 39 -5 75t-7 75zM-10 305q26 -2 67 15.5t64 46.5q-17 6 -34 13t-34 7q-16 0 -27.5 -10t-18.5 -24.5t-11 -28t-6 -19.5zM57 100q0 9 8.5 22t19.5 26.5t22.5 22.5t19.5 9h6q12 -10 31.5 -28.5t36.5 -28.5v-2q0 -6 -9.5 -18.5 t-21.5 -26t-23.5 -24.5t-17.5 -15l-2 -2q-4 0 -15.5 8t-23.5 18.5t-21.5 21.5t-9.5 17z" />
<glyph unicode="&#xad;" d="M143 283v123q133 0 311.5 1t364.5 1v-125h-676z" />
<glyph unicode="&#x2000;" horiz-adv-x="1567" />
<glyph unicode="&#x2001;" horiz-adv-x="3135" />
<glyph unicode="&#x2002;" horiz-adv-x="1567" />
<glyph unicode="&#x2003;" horiz-adv-x="3135" />
<glyph unicode="&#x2004;" horiz-adv-x="1045" />
<glyph unicode="&#x2005;" horiz-adv-x="783" />
<glyph unicode="&#x2006;" horiz-adv-x="522" />
<glyph unicode="&#x2007;" horiz-adv-x="522" />
<glyph unicode="&#x2008;" horiz-adv-x="391" />
<glyph unicode="&#x2009;" horiz-adv-x="627" />
<glyph unicode="&#x200a;" horiz-adv-x="174" />
<glyph unicode="&#x2010;" d="M143 283v123q133 0 311.5 1t364.5 1v-125h-676z" />
<glyph unicode="&#x2011;" d="M143 283v123q133 0 311.5 1t364.5 1v-125h-676z" />
<glyph unicode="&#x2012;" d="M143 283v123q133 0 311.5 1t364.5 1v-125h-676z" />
<glyph unicode="&#x2013;" horiz-adv-x="1311" d="M143 283v123q201 0 471.5 1t552.5 1v-125h-1024z" />
<glyph unicode="&#x2014;" horiz-adv-x="2335" d="M143 283v123q403 0 943.5 1t1104.5 1v-125h-2048z" />
<glyph unicode="&#x202f;" horiz-adv-x="627" />
<glyph unicode="&#x205f;" horiz-adv-x="783" />
<glyph unicode="&#x25fc;" horiz-adv-x="500" d="M0 0z" />
</font>
</defs>
</svg>
